<svg xmlns="http://www.w3.org/2000/svg" viewBox="0 0 32.03 76.17"><defs><style>.cls-1{fill:#fff;}</style></defs><title>balloon2</title><g id="レイヤー_2" data-name="レイヤー 2"><g id="main"><path class="cls-1" d="M14.89,33.51C3.53,34.58-.4,21.39,2.18,12.45,5.42,1.23,18.53-2.36,26.26,7.1c5.39,6.6,7,21.18-2.13,25.59C20,34.7,12.57,34.35,13.36,41a.79.79,0,0,0,.55.72,9.48,9.48,0,0,0,6.79-.21.76.76,0,0,0,.45-1.1l-4-5.62a.76.76,0,0,0-1.37.18c-1.44,6-2.85,12.41-.66,18.46,1,2.69,2.58,5.1,3.64,7.75C21,66.66,19.43,72,14,74.79c-.86.44-.1,1.73.76,1.3A11.4,11.4,0,0,0,21,62.77c-1-3.74-3.48-6.84-4.66-10.51-1.79-5.58-.38-11.43.93-16.94l-1.37.18c.83,1.16,1.81,3.35,3,4.21q-.4,3.76.27-4l1.4-.34c2.36-1.17,4.52-.92,6.66-2.75C30.29,30,31.64,25.69,32,21.74,32.73,12.12,27.31,1.64,17,.17-4.29-2.9-6.26,37,14.89,35c1-.09,1-1.59,0-1.5Z"/></g></g></svg>