<svg xmlns="http://www.w3.org/2000/svg" viewBox="0 0 37.83 97.97"><defs><style>.cls-1{fill:#fff;}</style></defs><title>balloon1</title><g id="レイヤー_2" data-name="レイヤー 2"><g id="main"><path class="cls-1" d="M18.21,36.32C5.62,39-1.16,21.27,2.84,11.67,7.62.2,21.64-1.12,30,7.17c7.87,7.79,9,22.2-1.65,28.26C25.08,37.29,21.08,37,17.82,38.8c-3,1.65-3.45,4.25-4.79,7.2a.76.76,0,0,0,.65,1.13c2.07.18,9.4,1.59,10.14-1.82.59-2.73-3.94-5.66-5.77-6.79-.78-.48-1.4.55-.91,1.18,4.41,5.66,6.81,13.18,4.26,20.15C20,63.74,17.68,66.95,17,71.13a22.35,22.35,0,0,0,1.27,11.61c1.9,4.91,5.45,9,5.19,14.5,0,1,1.45,1,1.5,0,.22-4.67-2-8.1-3.94-12.18-3.65-7.46-3.27-14,.29-21.43,4.19-8.69,2.81-17.4-3.12-25l-.91,1.18c1.82,1.11,5.93,3.34,1.67,6-1,.63-4.23-.12-5.28-.21l.65,1.13c1-2.18,1.64-4.94,3.72-6.38a13.5,13.5,0,0,1,4.52-1.55c2.78-.66,5.34-1.2,7.75-2.85A17.89,17.89,0,0,0,37.7,23.48C39,13,30.34,1.51,19.8.14S0,8.05,0,18.43C0,28,7.85,40,18.61,37.77c.94-.2.54-1.64-.4-1.45Z"/></g></g></svg>