<svg xmlns="http://www.w3.org/2000/svg" viewBox="0 0 139.29 139.3"><defs><style>.cls-1{fill:#ffe53f;}</style></defs><title>logo3</title><g id="レイヤー_2" data-name="レイヤー 2"><path class="cls-1" d="M15.48,14.5a142.28,142.28,0,0,0,26,1.93h3.09c.14-2.07.14-2.07.56-7.16.14-2.34.14-2.62.14-6.47a25.24,25.24,0,0,0-.14-3.58l20.49,1C64.45,3.76,64,6.65,63.33,15.88c23.44-1.38,41.12-3.72,52.77-7.16l1,18.87c-2.1.14-2.81.28-5.89.69-14.59,2.07-37,4.13-49.12,4.41a41.83,41.83,0,0,1-.28,5.1c-.14,1.65-.14,3-.14,5.65a72.92,72.92,0,0,1,17.54-1.65,39.08,39.08,0,0,1,4.91.41,52.18,52.18,0,0,0,2.39-9.64l18.95,5.23c-.42,1-.42,1-1.82,4.41A23.39,23.39,0,0,1,102.06,46a37.62,37.62,0,0,1,14.45,7.3C124.94,60.09,129,68.49,129,79.24c0,15.84-9,28.65-25.26,36.09-7,3.17-14.88,5-28.49,6.75-2.25-7.71-3.65-11.16-8.42-19.28,10.67,0,17.82-1.24,25-4,10.81-4.27,16.84-11.71,16.84-20.8,0-7.58-3.79-12.53-12.35-16.39C88.87,77.45,82,87.5,71.19,98.11c-13.19,13.08-25.12,19.28-37,19.28-14.31,0-24-10.47-24-25.9,0-11.57,4.91-22.59,14-31.4C29.65,54.58,35,51.28,43.4,47.7q0-5.79.42-14.46H39.89c-2.67,0-3.65,0-11.23-.28-1.82-.14-4.07-.14-6.74-.28H19.41a22.77,22.77,0,0,0-3.79.28ZM28.95,89.71c0,5.79,2.53,9.23,7,9.23,3.37,0,6.46-1.24,10.1-4a175.16,175.16,0,0,1-2.39-28.51C34.28,72.63,28.95,80.89,28.95,89.71Zm33.54-7.16C71,72.21,74.42,67,78.63,57.61a14.07,14.07,0,0,0-3.93-.28,38.65,38.65,0,0,0-13.33,2.2C61.51,70,61.79,75.38,62.49,82.54Z"/></g></svg>