<svg xmlns="http://www.w3.org/2000/svg" viewBox="0 0 270.37 200.5"><defs><style>.cls-1{fill:none;stroke:#fff;stroke-miterlimit:10;stroke-width:0.75px;}.cls-2{fill:#fff;}</style></defs><title>summary1</title><g id="レイヤー_2" data-name="レイヤー 2"><g id="main"><path class="cls-1" d="M101.42,12.9C91.76,8.62,36.23-16,10.94,18.51,4.18,27.74-2.52,44.09,1.68,54.94c1.79,4.62,5.82,8.93,41.6,14.15,4.53,8.54,11.6,13,12.28,12S51.06,76.18,50.13,70l4.5.59c27.85,3.56,33.46,2.8,36.63,2.24,18.92-3.32,45.3-15.71,45.46-30.27C136.88,28.64,112.84,18,101.42,12.9Z"/><path class="cls-2" d="M39.07,34.83a8.4,8.4,0,0,1,0-4c.06-.41.13-.76.19-1.15s.89-.42.8.06-.15.72-.22,1.12A8.77,8.77,0,0,0,39.51,33c0,.24,0,.33.15.09,0-.06,0-.08.09-.18.21-.47.78-.06.58.3a3.91,3.91,0,0,0-.44,1.28c0,.16,0,.47-.11.61S39.21,35.26,39.07,34.83Zm2.45.09a.84.84,0,0,1,.06-1.6A2.35,2.35,0,0,1,43,33.2,1.05,1.05,0,0,0,43,33c0-.42,0-.7,0-1a3.47,3.47,0,0,1-1.59,0,.37.37,0,1,1,.25-.69,3.08,3.08,0,0,0,1.34-.09,3.11,3.11,0,0,0-.12-.68c-.07-.42.62-.53.76-.15a1.36,1.36,0,0,1,.1.6l.31-.14c.45-.23.85.43.25.68a5.77,5.77,0,0,1-.61.23,7,7,0,0,0,0,1.14c0,.14,0,.29,0,.44a3.36,3.36,0,0,1,.95.63c.39.36-.12,1-.53.61a3.19,3.19,0,0,0-.47-.41A1.5,1.5,0,0,1,41.52,34.92Zm2.41-5a6,6,0,0,1-2.36.23.36.36,0,1,1,.19-.69,6.22,6.22,0,0,0,2-.26.31.31,0,0,1,.12,0A1.46,1.46,0,0,0,43.7,29c-.38-.22,0-.64.34-.47a2.48,2.48,0,0,1,.72.56c.26.35-.23.76-.46.47C44.28,29.73,44.17,29.87,43.93,29.93Zm-1,3.94a1.49,1.49,0,0,0-1.1,0,.24.24,0,0,0,0,.46.75.75,0,0,0,1.1-.39Zm2.13-4.94a2.88,2.88,0,0,0-.6-.51c-.39-.2,0-.65.32-.48a2.59,2.59,0,0,1,.74.54C45.8,28.83,45.29,29.27,45.06,28.93Z"/><path class="cls-2" d="M50.13,35.14a14.78,14.78,0,0,0-1.7-2.61,1.2,1.2,0,0,1,.1-1.84,19.72,19.72,0,0,0,1.65-1.82.45.45,0,1,1,.72.55c-.4.49-1.25,1.19-1.75,1.69-.35.35-.36.59-.1.92a13.9,13.9,0,0,1,1.88,2.62C51.17,35.18,50.39,35.65,50.13,35.14Z"/><path class="cls-2" d="M55.11,34.83A7.26,7.26,0,0,1,55,32c.1-1,.28-1.87.32-2.4a.41.41,0,1,1,.81,0c-.06.36-.19,1.06-.3,1.74a9,9,0,0,0-.15,1.68c0,.15,0,.17.1,0s.08-.19.1-.23c.18-.39.8-.11.51.49a5,5,0,0,0-.25.64c-.06.2-.11.38-.14.51s0,.45-.16.64S55.24,35.26,55.11,34.83Zm2.5.17a.91.91,0,0,1,.12-1.69,2.29,2.29,0,0,1,1.42-.1c0-.13,0-.25,0-.4,0-.33,0-.95-.06-1.58a5.5,5.5,0,0,1-1.32.06.39.39,0,1,1,.16-.76,3.37,3.37,0,0,0,1.13,0c0-.45,0-.86,0-1.11,0-.52.8-.45.77,0,0,.23,0,.56,0,1l.41-.11c.52-.16.87.57.18.74l-.58.14c0,.63,0,1.25,0,1.65,0,.2,0,.47,0,.72a3.83,3.83,0,0,1,.91.59c.46.42-.11,1.12-.51.69a3.71,3.71,0,0,0-.5-.42A1.6,1.6,0,0,1,57.61,35Zm1.46-1.05a1.45,1.45,0,0,0-1.11,0,.27.27,0,0,0,0,.47.83.83,0,0,0,1.17-.43Z"/><path class="cls-2" d="M63.35,35.38a3.07,3.07,0,0,0-1-.84.35.35,0,0,1,.16-.68c.28,0,1.57.71,1.57,1.25a.44.44,0,0,1-.43.44A.36.36,0,0,1,63.35,35.38Z"/><path class="cls-2" d="M73,34.2a6.65,6.65,0,0,1-.88.55c-.5.26-1.26.13-1.17-.95a3.14,3.14,0,0,1,1.44-2.13l.34-.19c0-.31.06-.63.1-1a3,3,0,0,1-1-.08.37.37,0,1,1,.22-.71,2.43,2.43,0,0,0,.87.06c0-.23.07-.47.1-.72.09-.6.87-.47.78,0,0,.2-.07.4-.1.59a8.08,8.08,0,0,0,1.09-.31c.47-.18.82.51.18.72a10,10,0,0,1-1.39.35c0,.26-.07.49-.1.72A3.2,3.2,0,0,1,74.3,31h.1v0c.06-.47.8-.32.76.06,2.35.43,2.23,3.39-.52,4.29-.72.24-.92-.51-.26-.72,2-.65,2.08-2.55.63-2.91a5.19,5.19,0,0,1-1.39,2,1,1,0,0,0,.09.16c.28.47-.39,1-.69.41Zm-.31-2a2.28,2.28,0,0,0-1,1.51c0,.32.19.35.4.24a6.44,6.44,0,0,0,.72-.47A6.4,6.4,0,0,1,72.68,32.22Zm1.54-.6a3.44,3.44,0,0,0-.83.22,5.42,5.42,0,0,0,0,1.09,3.77,3.77,0,0,0,.84-1.31Z"/><path class="cls-2" d="M82.32,30.83a6.33,6.33,0,0,1-1.62,3.26c-.62.57-1.29.26-1.65-.43a2.77,2.77,0,0,1,1.11-3.24,3.36,3.36,0,0,1,3.47-.19,2.38,2.38,0,0,1,.75,3.38,3.36,3.36,0,0,1-2,1.33c-.71.18-1-.63-.27-.79a2.49,2.49,0,0,0,1.5-.9,1.74,1.74,0,0,0-.44-2.46,2.09,2.09,0,0,0-1-.32A.4.4,0,0,1,82.32,30.83ZM80.54,31a2,2,0,0,0-.81,2.27c.12.23.33.35.53.18a4.83,4.83,0,0,0,1.25-2.68.57.57,0,0,1,.07-.25A2.66,2.66,0,0,0,80.54,31Z"/><path class="cls-2" d="M91.12,35.23c-.35,0-.79,0-1.21,0s-.84,0-1.17,0c-.7,0-1-.38-1.07-1s0-1.4,0-2.28,0-1.57,0-2.11a.92.92,0,0,1,1-.88L90,29l1.12,0a1,1,0,0,1,1,.94c0,.49,0,1.29,0,2.1s0,1.77,0,2.2A1,1,0,0,1,91.12,35.23Zm.23-3.7c0-.51,0-1,0-1.29,0-.55-.14-.56-1.42-.56s-1.47,0-1.5.56c0,.33,0,.79,0,1.29Zm-3,.71c0,.68,0,1.32,0,1.7s.1.56,1.47.56h.84c.45,0,.59-.23.6-.57s0-1,0-1.68Z"/><path class="cls-2" d="M39.46,48.18a.42.42,0,0,1,.67-.52c.68.7,2,.64,3.2.3.67-.19.86.68.21.88C41.94,49.34,40,49,39.46,48.18Zm.9-3.28c-.63.12-.74-.73,0-.84a8.54,8.54,0,0,1,2.57,0c.68.15.5,1-.15.84A6.12,6.12,0,0,0,40.36,44.9Z"/><path class="cls-2" d="M48.94,49a3.15,3.15,0,0,0,1.55-3.37c-.23-.63-.83-.66-1.38-.33a4.93,4.93,0,0,1-.78.37.44.44,0,1,1-.25-.84c.21-.07.47-.16.69-.26a1.8,1.8,0,0,1,2.43.6c.62,1.34-.06,3.25-1.67,4.43C49,50,48.46,49.32,48.94,49Zm-.17-5.75c-.46-.26-.12-.88.44-.63a5.42,5.42,0,0,0,1.25.35c.66.11.39.92-.2.81A5.11,5.11,0,0,1,48.77,43.23Z"/><path class="cls-2" d="M54.14,48.75a.43.43,0,0,1,.24-.35,2.17,2.17,0,0,0,.73-.88.35.35,0,0,1,.35-.27.39.39,0,0,1,.4.37c0,.43-.76,1.53-1.28,1.53A.42.42,0,0,1,54.14,48.75Zm3.6-2.43c-.6,0-1.2,0-1.71,0s-1-.24-1-.87c0-.27,0-.58,0-.88,0-1.3,0-1.78,1.1-1.82l1.54,0,1.47,0c.6,0,1,.26,1,.91,0,.31,0,.69,0,1.05,0,.92,0,1.54-1.09,1.6C58.72,46.31,58.23,46.32,57.74,46.32Zm-.48-3c-.43,0-.82,0-1.12,0s-.39.29-.39.84h1.51Zm0,1.47H55.75c0,.56,0,.84.42.85l1.09,0Zm.43,4.68-.59,0a.87.87,0,0,1-.92-.94c0-.35,0-1,0-1.42a.36.36,0,0,1,.39-.32.35.35,0,0,1,.38.32v0c0,.35,0,1,0,1.26s.32.39.83.39c.76,0,1-.16,1-.56a.36.36,0,0,1,.39-.35.39.39,0,0,1,.43.39C59.61,49.46,58.4,49.48,57.69,49.48Zm.49-1.87a2.91,2.91,0,0,0-.87-.61.29.29,0,0,1-.19-.27.36.36,0,0,1,.37-.35c.14,0,1.35.47,1.35.95a.42.42,0,0,1-.39.41A.37.37,0,0,1,58.18,47.6Zm1.29-3.41c0-.18,0-.35,0-.5,0-.35-.19-.37-1.49-.37v.87Zm-1.5.6v.88c.35,0,.72,0,1.09,0s.42-.37.42-.85Zm2.9,4.06a.42.42,0,0,1-.36-.23,2.8,2.8,0,0,0-.93-1,.28.28,0,0,1-.14-.23.42.42,0,0,1,.42-.36c.31,0,1.46.91,1.46,1.36A.44.44,0,0,1,60.87,48.86Z"/><path class="cls-2" d="M65.44,49.21c-.64.1-.7-.67-.14-.75A3.16,3.16,0,0,0,67,47.79c.48-.43.51-.87.26-1.14a1.46,1.46,0,0,0-1.5-.23,13.82,13.82,0,0,0-1.65.75.4.4,0,1,1-.35-.71,14.86,14.86,0,0,1,1.85-.69,2.26,2.26,0,0,1,2.16.41,1.44,1.44,0,0,1-.33,2.2A4,4,0,0,1,65.44,49.21Z"/><path class="cls-2" d="M71.8,48.88c-.24.54-1.09.31-.76-.38A25,25,0,0,0,72.45,45a2.35,2.35,0,0,1-1.17-.11c-.41-.18-.33-.91.27-.69a2.15,2.15,0,0,0,1.11,0,3.51,3.51,0,0,0,0-.87c0-.46.72-.48.8,0a2.43,2.43,0,0,1,0,.64l.31-.17a.38.38,0,1,1,.31.69,5.12,5.12,0,0,1-.81.32A31.6,31.6,0,0,1,71.8,48.88Zm2-.36c-.35-.39.15-1,.57-.6s.9.38,1.84.3a.42.42,0,1,1,.1.83A2.88,2.88,0,0,1,73.75,48.52Zm.91-2.81c-.42.15-.67-.51-.14-.69a3,3,0,0,1,1.93,0c.54.19.32.9-.18.73A2.83,2.83,0,0,0,74.66,45.72Z"/><path class="cls-2" d="M81.74,48c0-.37.06-.6,0-1,0-.89-1.26-.14-1.49.27a4.2,4.2,0,0,0-.51,1.09c-.14.62-.32.66-.48.68a.42.42,0,0,1-.47-.62A14.17,14.17,0,0,1,80.12,46c.47-.72.88-1.41,1.28-2,.14-.23.35-.51.44-.67a.43.43,0,0,1,.75.43,2,2,0,0,1-.18.28l-.23.27a11.78,11.78,0,0,0-.85,1.07c-.21.3-.37.55-.55.82-.06.08,0,.06,0,0,.29-.26,1.68-.64,1.79.72,0,.31,0,.59,0,.88,0,.72.69.63,1.17.2a2.74,2.74,0,0,0,.73-1.13c.23-.59,1.08-.18.77.42a3.91,3.91,0,0,1-1,1.33C83.33,49.33,81.73,49.5,81.74,48Z"/><path class="cls-2" d="M87.85,48.88c-.24.54-1.09.31-.76-.38A24.89,24.89,0,0,0,88.5,45a2.35,2.35,0,0,1-1.17-.11c-.41-.18-.33-.91.27-.69a2.15,2.15,0,0,0,1.11,0,3.46,3.46,0,0,0,0-.87c0-.46.72-.48.8,0a2.43,2.43,0,0,1,0,.64l.31-.17a.38.38,0,1,1,.31.69,5.16,5.16,0,0,1-.81.32A31.58,31.58,0,0,1,87.85,48.88Zm2-.36c-.35-.39.15-1,.57-.6s.9.38,1.84.3a.42.42,0,1,1,.1.83A2.88,2.88,0,0,1,89.8,48.52Zm.91-2.81c-.42.15-.67-.51-.14-.69a3,3,0,0,1,1.93,0c.54.19.32.9-.18.73A2.83,2.83,0,0,0,90.71,45.72Zm.91-1.87c-.41-.17-.09-.66.28-.52a2.48,2.48,0,0,1,.8.48c.31.34-.16.83-.43.51A2.75,2.75,0,0,0,91.62,43.85Zm.72-.71c-.41-.16-.12-.65.26-.53a2.6,2.6,0,0,1,.81.47c.32.32-.14.82-.41.51A2.92,2.92,0,0,0,92.34,43.14Z"/><path class="cls-1" d="M95.82,130.05a20.23,20.23,0,0,0,.92-6.09c0-12.27-9.5-22.22-21.22-22.22S54.28,111.69,54.28,124a22,22,0,0,0,1.66,8.59c1.73,6,7.21,10.75,14.1,13.6v7.16h7.57v-5c10.66,1.55,18.4-4.17,18-14.79a1.89,1.89,0,0,0,1.66-1C97.58,131.65,96.7,130.58,95.82,130.05Z"/><path class="cls-1" d="M182.53,194.58a6.58,6.58,0,0,1,.41-3.5,14,14,0,0,1,4.81-5.49,7.82,7.82,0,0,0,3-9.75c-1.75-4.31-3-4-4-10.33-1.49-9.88-10.64-16.95-20.63-16.95-11.72,0-21.23,10-21.22,22.22a20,20,0,0,0,1,6.08c-.89.51-1.8,1.59-1.51,2.44a1.88,1.88,0,0,0,1.66,1c-.38,10.62,7.37,16.35,18,14.79v5h7.57V193c1-.42,2-.89,3-1.39Z"/><path class="cls-1" d="M269.59,81.86c-4.77-20-50.3-19.19-64.45-18.95-27.75.47-39.21,8.75-44.17,13-4.11,3.53-17.12,14.72-15.74,26.63,2.13,18.47,37.32,25.51,52.1,27,2.24.22,4.71.47,7.36.64-1.34,4.63-6,7.52-5.41,8.21s7-2.06,11.74-8c10.52,0,23-2.06,35.08-10.91C255.65,112.48,272.84,95.47,269.59,81.86Z"/><path class="cls-2" d="M177.27,93.3a6.65,6.65,0,0,1-.88.55c-.5.26-1.26.13-1.17-.95a3.14,3.14,0,0,1,1.44-2.13l.34-.19c0-.31.06-.63.1-1a3,3,0,0,1-1-.08.37.37,0,1,1,.22-.71,2.43,2.43,0,0,0,.87.06c0-.23.07-.47.1-.72.09-.6.87-.47.78,0,0,.2-.07.4-.1.59a8.08,8.08,0,0,0,1.09-.31c.47-.18.82.51.18.72a10,10,0,0,1-1.39.35c0,.26-.07.49-.1.72a3.2,3.2,0,0,1,.84-.18h.1v0c.06-.47.8-.32.76.06,2.35.43,2.23,3.39-.51,4.29-.72.24-.92-.51-.27-.72,2-.65,2.08-2.55.63-2.91a5.19,5.19,0,0,1-1.39,2,1,1,0,0,0,.09.16c.28.47-.39,1-.69.41Zm-.31-2a2.28,2.28,0,0,0-1,1.51c0,.32.19.35.4.24a6.44,6.44,0,0,0,.72-.47A6.4,6.4,0,0,1,177,91.32Zm1.54-.6a3.44,3.44,0,0,0-.83.22,5.42,5.42,0,0,0,0,1.09,3.77,3.77,0,0,0,.84-1.31Z"/><path class="cls-2" d="M183.94,89.67a.37.37,0,1,1,.23-.69,2.15,2.15,0,0,0,1.1,0,5.2,5.2,0,0,0,.16-.81.39.39,0,0,1,.76.07,2.73,2.73,0,0,1-.11.49l.26-.14c.36-.26.87.24.35.61a3.07,3.07,0,0,1-.86.37,20.21,20.21,0,0,1-1.44,2.71c-.3.48-1.07.17-.71-.35a15.64,15.64,0,0,0,1.32-2.2A2.2,2.2,0,0,1,183.94,89.67Zm1.38,4.53a.85.85,0,0,1,0-1.62,2.63,2.63,0,0,1,1.54-.15v-.28c0-.2,0-.4,0-.6a2.35,2.35,0,0,1,0-.54.37.37,0,0,1,.72.14,1.59,1.59,0,0,0,0,.38c0,.19,0,.39,0,.62s0,.32,0,.5a2.92,2.92,0,0,1,1,.64c.46.51-.19,1.08-.58.61a2.32,2.32,0,0,0-.46-.42A1.61,1.61,0,0,1,185.32,94.2Zm.26-1.05a.24.24,0,0,0,0,.47.87.87,0,0,0,1.22-.43s0-.06,0-.08A1.61,1.61,0,0,0,185.58,93.15Zm1.79-3c-.44,0-.47-.64,0-.69a2.54,2.54,0,0,1,1.48.28c.55.33.13,1-.27.75A2.07,2.07,0,0,0,187.38,90.18Z"/><path class="cls-2" d="M192.17,93.9c-.24.54-1.09.31-.76-.38A24.87,24.87,0,0,0,192.82,90a2.35,2.35,0,0,1-1.17-.11c-.41-.18-.33-.91.27-.69a2.15,2.15,0,0,0,1.11,0,3.51,3.51,0,0,0,0-.87c0-.46.72-.48.8,0a2.43,2.43,0,0,1,0,.64l.31-.17a.38.38,0,1,1,.31.69,5.12,5.12,0,0,1-.81.32A31.6,31.6,0,0,1,192.17,93.9Zm2-.36c-.35-.39.15-1,.57-.6s.9.38,1.84.3a.42.42,0,1,1,.1.83A2.88,2.88,0,0,1,194.13,93.54Zm.91-2.81c-.42.15-.67-.51-.14-.69a3,3,0,0,1,1.93,0c.54.19.32.9-.18.73A2.83,2.83,0,0,0,195,90.74Z"/><path class="cls-2" d="M200.61,89c-.42-.51.37-.95.69-.49a8.17,8.17,0,0,1,.94,1.87,15.27,15.27,0,0,1,1.42-.88c.55-.31,1,.47.35.78a12.08,12.08,0,0,0-2.28,1.42c-.8.68-.82,1.28-.19,1.58a3.58,3.58,0,0,0,2.2-.1c.67-.26.92.67.2.87a4.56,4.56,0,0,1-2.77-.06c-1.16-.59-1.11-1.89.19-2.93l.23-.19A6.53,6.53,0,0,0,200.61,89Z"/><path class="cls-2" d="M213.4,93.45v0c0,.47-.3,1.08-1.38,1.08-.72,0-.92-.14-.92-.47a.35.35,0,0,1,.33-.38h.07a3,3,0,0,0,.51.06c.33,0,.58-.1.58-.47,0-3.41,0-3.49,0-4.14,0-.47-.23-.52-.57-.53l-1.75,0-1.7,0c-.46,0-.59.15-.6.55,0,.95,0,2,0,3,0,.68,0,1.37,0,2.07h0a.36.36,0,0,1-.39.35.37.37,0,0,1-.41-.35c0-2.16,0-4.71,0-5.41a.93.93,0,0,1,1-1l2.22,0,2,0a.91.91,0,0,1,1,.91c0,1.22,0,2.56,0,3.47Zm-4.57-3.59a.33.33,0,0,1,0-.65h2.85a.33.33,0,0,1,0,.65Zm1.4,3.17c-1.27,0-1.48,0-1.48-1.22,0-.24,0-.5,0-.69a.65.65,0,0,1,.68-.66l.86,0,.72,0a.65.65,0,0,1,.69.66c0,.18,0,.39,0,.6C211.74,92.91,211.7,93,210.23,93Zm.79-1.22c0-.18,0-.38,0-.51s-.22-.26-.8-.26l-.51,0c-.25,0-.26.18-.26.6,0,.17,0,.35,0,.47s.15.27.81.27.75-.06.76-.25S211,91.93,211,91.81Z"/><path class="cls-2" d="M216.57,92.67c0-.84.06-1.53.1-2.38,0-.52.08-1.31.06-1.81a.44.44,0,0,1,.88,0c0,.51-.07,1.27-.11,1.81a22.44,22.44,0,0,0-.14,2.36c0,1.17,1.48,1.09,2.88,0a.45.45,0,1,1,.55.7C219.22,94.6,216.64,94.84,216.57,92.67Zm2.31-3c-.44-.19-.1-.7.3-.55a2.92,2.92,0,0,1,.87.51c.34.36-.17.89-.46.55A2.93,2.93,0,0,0,218.88,89.69Zm.85-.74c-.45-.17-.12-.7.29-.56a2.8,2.8,0,0,1,.88.49c.35.35-.14.89-.44.56A3,3,0,0,0,219.73,89Z"/><path class="cls-2" d="M224.19,93.2a.42.42,0,0,1,.67-.52c.68.7,2,.64,3.2.3.67-.19.86.68.21.88C226.68,94.36,224.75,94,224.19,93.2Zm.9-3.28c-.63.12-.74-.73,0-.84a8.54,8.54,0,0,1,2.57,0c.68.15.5,1-.15.84A6.12,6.12,0,0,0,225.09,89.92Z"/><path class="cls-2" d="M232.79,89c-.42-.51.37-.95.69-.49a8.17,8.17,0,0,1,.94,1.87,15.27,15.27,0,0,1,1.42-.88c.55-.31,1,.47.35.78a12.08,12.08,0,0,0-2.28,1.42c-.8.68-.82,1.28-.19,1.58a3.58,3.58,0,0,0,2.2-.1c.67-.26.92.67.2.87a4.56,4.56,0,0,1-2.77-.06c-1.16-.59-1.11-1.89.19-2.93l.23-.19A6.53,6.53,0,0,0,232.79,89Z"/><path class="cls-2" d="M242.52,88.63a2.85,2.85,0,0,0,.34-.14c.44-.27.88.4.28.7a4.51,4.51,0,0,1-.88.27,8.45,8.45,0,0,1-.39.81,1.17,1.17,0,0,1,1.35.7c.33-.17.67-.34,1-.47a6,6,0,0,0,.63-.3.43.43,0,1,1,.45.72c-.26.13-.44.17-.87.33s-.7.29-1,.44a6.62,6.62,0,0,1,0,.88.48.48,0,0,1-.43.5c-.2,0-.39-.15-.36-.46s0-.35,0-.52l-.21.12c-1,.64-.88,1.13-.43,1.35a2.55,2.55,0,0,0,1.59-.06c.71-.22.93.65.19.84a3.53,3.53,0,0,1-2.2-.11c-1.09-.61-.89-1.7.56-2.65l.39-.25c-.22-.68-.84-.6-1.36,0l0,0a1.71,1.71,0,0,1-.18.21c-.44.39-1-.06-.55-.5a4,4,0,0,0,.65-.76,6.72,6.72,0,0,0,.38-.72,1.62,1.62,0,0,1-1-.09c-.58-.29-.18-1,.38-.67a1.24,1.24,0,0,0,.76,0l.12,0a3.37,3.37,0,0,0,.09-.68c0-.48.79-.43.8,0a1.53,1.53,0,0,1-.06.47Z"/><path class="cls-2" d="M174.51,107.85a.43.43,0,0,1,.24-.35,2.17,2.17,0,0,0,.73-.88.35.35,0,0,1,.35-.27.39.39,0,0,1,.4.37c0,.43-.76,1.53-1.28,1.53A.42.42,0,0,1,174.51,107.85Zm3.6-2.43c-.6,0-1.2,0-1.71,0s-1-.24-1-.87c0-.27,0-.58,0-.88,0-1.3,0-1.78,1.1-1.82l1.54,0,1.47,0c.6,0,1,.26,1,.91,0,.31,0,.69,0,1.05,0,.92,0,1.54-1.09,1.6C179.09,105.41,178.61,105.42,178.12,105.42Zm-.48-3c-.43,0-.82,0-1.12,0s-.39.29-.39.84h1.51Zm0,1.47h-1.51c0,.56,0,.84.42.85l1.09,0Zm.43,4.68-.59,0a.87.87,0,0,1-.92-.94c0-.35,0-1,0-1.42a.36.36,0,0,1,.39-.32.35.35,0,0,1,.38.32v0c0,.35,0,1,0,1.26s.32.39.83.39c.76,0,1-.16,1-.56a.36.36,0,0,1,.39-.35.39.39,0,0,1,.43.39C180,108.56,178.77,108.58,178.06,108.58Zm.49-1.87a2.91,2.91,0,0,0-.87-.61.29.29,0,0,1-.19-.27.36.36,0,0,1,.37-.35c.14,0,1.35.47,1.35.95a.42.42,0,0,1-.39.41A.37.37,0,0,1,178.55,106.7Zm1.29-3.41c0-.18,0-.35,0-.5,0-.35-.19-.37-1.49-.37v.87Zm-1.5.6v.88c.35,0,.72,0,1.09,0s.42-.37.42-.85Zm2.9,4.06a.42.42,0,0,1-.36-.23,2.8,2.8,0,0,0-.93-1,.28.28,0,0,1-.14-.23.42.42,0,0,1,.42-.36c.31,0,1.46.91,1.46,1.36A.44.44,0,0,1,181.24,108Z"/><path class="cls-2" d="M185.82,108.31c-.64.1-.7-.67-.14-.75a3.16,3.16,0,0,0,1.69-.68c.48-.43.51-.87.26-1.14a1.46,1.46,0,0,0-1.5-.23,13.82,13.82,0,0,0-1.65.75.4.4,0,1,1-.35-.71,14.86,14.86,0,0,1,1.85-.69,2.26,2.26,0,0,1,2.16.41,1.44,1.44,0,0,1-.33,2.2A4,4,0,0,1,185.82,108.31Z"/><path class="cls-2" d="M193.44,104.46a2.75,2.75,0,0,1,.26-.42c.13-.17.09-.16-.06-.11-.6.19-.47.19-1,.4-.26.1-.48.18-.72.24-.71.19-.92-.73-.27-.87l.89-.19c.39-.1,1.09-.26,1.91-.49a10.87,10.87,0,0,1,2.2-.47.47.47,0,0,1,.55.62c0,.14-.22.3-.79.27a3.47,3.47,0,0,0-1.2.23,2.33,2.33,0,0,0-1,.94,1.78,1.78,0,0,0,1.63,2.81c.84,0,.89.92,0,.91A2.55,2.55,0,0,1,193.44,104.46Z"/><path class="cls-2" d="M200.24,107.28a4.15,4.15,0,0,1-.91-2.57,7.81,7.81,0,0,1,0-.89.41.41,0,1,1,.82,0c0,.31,0,.33,0,.7a3.09,3.09,0,0,0,.64,2.07c.21.2.31.23.49,0a3.17,3.17,0,0,0,.27-.47.39.39,0,0,1,.73.29,3.62,3.62,0,0,1-.31.62A1,1,0,0,1,200.24,107.28Zm4.35-1.42a2.54,2.54,0,0,0-.89-1.56c-.39-.27,0-.86.53-.5a3.09,3.09,0,0,1,1.21,1.87A.43.43,0,1,1,204.59,105.87Z"/><path class="cls-2" d="M208.26,108c-.24.54-1.09.31-.76-.38a24.87,24.87,0,0,0,1.41-3.49,2.35,2.35,0,0,1-1.17-.11c-.41-.18-.33-.91.27-.69a2.15,2.15,0,0,0,1.11,0,3.51,3.51,0,0,0,0-.87c0-.46.72-.48.8,0a2.43,2.43,0,0,1,0,.64l.31-.17a.38.38,0,1,1,.31.69,5.12,5.12,0,0,1-.81.32A31.6,31.6,0,0,1,208.26,108Zm2-.36c-.35-.39.15-1,.57-.6s.9.38,1.84.3a.42.42,0,1,1,.1.83A2.88,2.88,0,0,1,210.22,107.62Zm.91-2.81c-.42.15-.67-.51-.14-.69a3,3,0,0,1,1.93,0c.54.19.32.9-.18.73A2.83,2.83,0,0,0,211.12,104.81Z"/></g></g></svg>